<svg xmlns="http://www.w3.org/2000/svg" viewBox="0 0 128 128" width="128" height="128">
  <rect width="128" height="128" rx="24" fill="#06080f"/>
  <circle cx="64" cy="64" r="50" fill="none" stroke="rgba(61,83,252,0.15)" stroke-width="1"/>
  <!-- Brain outline paths -->
  <path d="M64 24 C40 24, 22 42, 22 64 C22 80, 30 94, 44 100 C44 108, 52 114, 64 114 C76 114, 84 108, 84 100 C98 94, 106 80, 106 64 C106 42, 88 24, 64 24Z" fill="none" stroke="#3d53fc" stroke-width="2.5" stroke-linecap="round"/>
  <!-- Neural connections -->
  <line x1="64" y1="24" x2="64" y2="48" stroke="#3d53fc" stroke-width="1.5" stroke-dasharray="3,3"/>
  <line x1="64" y1="64" x2="44" y2="50" stroke="#3d53fc" stroke-width="1.5"/>
  <line x1="64" y1="64" x2="84" y2="50" stroke="#3d53fc" stroke-width="1.5"/>
  <line x1="64" y1="64" x2="42" y2="74" stroke="#3d53fc" stroke-width="1.5"/>
  <line x1="64" y1="64" x2="86" y2="74" stroke="#3d53fc" stroke-width="1.5"/>
  <line x1="64" y1="64" x2="64" y2="90" stroke="#3d53fc" stroke-width="1.5"/>
  <!-- Synapses -->
  <circle cx="64" cy="48" r="4" fill="#3d53fc" opacity="0.9"/>
  <circle cx="44" cy="50" r="3.5" fill="#14b8a6" opacity="0.9"/>
  <circle cx="84" cy="50" r="3.5" fill="#14b8a6" opacity="0.9"/>
  <circle cx="42" cy="74" r="3" fill="#3d53fc" opacity="0.7"/>
  <circle cx="86" cy="74" r="3" fill="#3d53fc" opacity="0.7"/>
  <circle cx="64" cy="90" r="3" fill="#14b8a6" opacity="0.8"/>
  <circle cx="64" cy="64" r="6" fill="#3d53fc"/>
  <!-- Glow -->
  <circle cx="64" cy="64" r="6" fill="none" stroke="#3d53fc" stroke-width="3" opacity="0.3"/>
</svg>
